<svg width="158" height="31" viewBox="0 0 158 31" fill="none" xmlns="http://www.w3.org/2000/svg">
<path d="M16.6798 30.5114V23.707C16.1783 23.8017 15.6609 23.8513 15.1319 23.8513C10.5599 23.8513 6.85365 20.1492 6.85365 15.5825C6.85365 11.0158 10.5599 7.31374 15.1319 7.31374C19.6047 7.31374 23.2489 10.857 23.4049 15.2867H23.4149V30.5825H30.149V15.5825C30.149 6.59885 23.4256 0.58252 15.1319 0.58252C6.83813 0.58252 0.114746 7.29824 0.114746 15.5825C0.114746 23.8668 6.83813 30.5825 15.1319 30.5825C15.6513 30.5825 16.1683 30.561 16.6798 30.5114Z" fill="url(#paint0_linear_1245_1617)"/>
<path d="M52.6556 23.4365C54.2107 23.1275 55.6392 22.3648 56.7604 21.2449L61.7102 26.1891C60.0496 27.8479 58.029 29.0882 55.8159 29.8209C55.2301 30.0148 54.6309 30.1732 54.0212 30.2943C51.1082 30.8731 48.0887 30.576 45.3447 29.4407C42.6007 28.3054 40.2553 26.3828 38.6052 23.9161C36.9551 21.4493 36.0744 18.5492 36.0744 15.5825C36.0744 12.6158 36.9551 9.71571 38.6052 7.24897C40.2553 4.78224 42.6007 2.85965 45.3447 1.72432C48.0887 0.589014 51.1082 0.291979 54.0212 0.870737C54.6309 0.991865 55.2301 1.15022 55.8159 1.34416C58.029 2.07681 60.0496 3.31717 61.7102 4.97591L56.7604 9.9201C55.6392 8.80018 54.2107 8.03752 52.6556 7.72852C51.1004 7.41954 49.4885 7.57812 48.0235 8.18422C46.5586 8.79031 45.3065 9.8167 44.4256 11.1336C43.5447 12.4505 43.0745 13.9987 43.0745 15.5825C43.0745 17.1663 43.5447 18.7146 44.4256 20.0315C45.3066 21.3483 46.5586 22.3747 48.0235 22.9808C49.4885 23.5869 51.1004 23.7455 52.6556 23.4365Z" fill="url(#paint1_linear_1245_1617)"/>
<path fill-rule="evenodd" clip-rule="evenodd" d="M96.3101 15.5825C96.3101 23.8668 89.5867 30.5825 81.293 30.5825C72.9993 30.5825 66.2759 23.8668 66.2759 15.5825C66.2759 7.29824 72.9993 0.58252 81.293 0.58252C89.5867 0.58252 96.3101 7.29824 96.3101 15.5825ZM89.31 15.5825C89.31 11.1599 85.7207 7.57465 81.293 7.57465C76.8653 7.57465 73.276 11.1599 73.276 15.5825C73.276 20.0051 76.8653 23.5904 81.293 23.5904C85.7207 23.5904 89.31 20.0051 89.31 15.5825Z" fill="url(#paint2_linear_1245_1617)"/>
<path d="M127.851 15.5825C127.851 13.6127 128.239 11.6621 128.994 9.84226C129.134 9.50607 129.285 9.17554 129.448 8.85129C130.167 7.42032 131.113 6.11148 132.249 4.97591C133.644 3.58304 135.299 2.47815 137.121 1.72432C138.943 0.970501 140.896 0.58252 142.868 0.58252C144.84 0.58252 146.793 0.970501 148.615 1.72432C150.437 2.47815 152.092 3.58304 153.487 4.97591C154.624 6.11148 155.569 7.42033 156.288 8.85129C156.451 9.17555 156.603 9.50607 156.742 9.84226C157.497 11.6621 157.885 13.6127 157.885 15.5825V30.5825H150.899V15.5825H150.885C150.885 14.5309 150.678 13.4896 150.275 12.518C149.872 11.5465 149.281 10.6637 148.537 9.9201C147.793 9.1765 146.909 8.58664 145.936 8.18422C144.963 7.78178 143.921 7.57465 142.868 7.57465C141.815 7.57465 140.773 7.78178 139.8 8.18422C138.827 8.58664 137.944 9.1765 137.199 9.9201C136.455 10.6637 135.864 11.5465 135.461 12.518C135.059 13.4896 134.851 14.5309 134.851 15.5825H134.837V30.5825H127.851V15.5825Z" fill="url(#paint3_linear_1245_1617)"/>
<path d="M101.883 15.7962C101.883 7.39392 108.702 0.58252 117.114 0.58252C120.46 0.58252 123.555 1.66035 126.068 3.4874L122.213 9.46885C120.818 8.34626 119.045 7.67426 117.114 7.67425C112.624 7.67425 108.983 11.3106 108.983 15.7962L108.989 15.7962V30.5825H101.883V15.7962Z" fill="url(#paint4_linear_1245_1617)"/>
<defs>
<linearGradient id="paint0_linear_1245_1617" x1="-9.09727" y1="0.582501" x2="262.627" y2="91.9322" gradientUnits="userSpaceOnUse">
<stop stop-color="#4600DA"/>
<stop offset="1" stop-color="#1B0250"/>
</linearGradient>
<linearGradient id="paint1_linear_1245_1617" x1="-9.09727" y1="0.582501" x2="262.627" y2="91.9322" gradientUnits="userSpaceOnUse">
<stop stop-color="#4600DA"/>
<stop offset="1" stop-color="#1B0250"/>
</linearGradient>
<linearGradient id="paint2_linear_1245_1617" x1="-9.09727" y1="0.582501" x2="262.627" y2="91.9322" gradientUnits="userSpaceOnUse">
<stop stop-color="#4600DA"/>
<stop offset="1" stop-color="#1B0250"/>
</linearGradient>
<linearGradient id="paint3_linear_1245_1617" x1="-9.09727" y1="0.582501" x2="262.627" y2="91.9322" gradientUnits="userSpaceOnUse">
<stop stop-color="#4600DA"/>
<stop offset="1" stop-color="#1B0250"/>
</linearGradient>
<linearGradient id="paint4_linear_1245_1617" x1="-9.09727" y1="0.582501" x2="262.627" y2="91.9322" gradientUnits="userSpaceOnUse">
<stop stop-color="#4600DA"/>
<stop offset="1" stop-color="#1B0250"/>
</linearGradient>
</defs>
</svg>
